<svg width="29" height="31" viewBox="0 0 29 31" fill="none" xmlns="http://www.w3.org/2000/svg">
<g clip-path="url(#clip0_606_2178)">
<path d="M4.28285 8.90704L2.71685 6.34904L7.21685 3.60004L8.78285 6.15304L4.28285 8.90704ZM23.8828 21.212L21.1058 25.712L23.6588 27.288L26.4358 22.788L23.8828 21.212ZM23.4068 18.286L18.7158 25.893C18.4603 26.3241 18.1093 26.6907 17.6897 26.9646C17.2701 27.2385 16.7933 27.4125 16.2958 27.473C16.1535 27.4909 16.0103 27.4999 15.8668 27.5C15.4324 27.5003 15.0023 27.4145 14.6012 27.2477C14.2001 27.0809 13.836 26.8363 13.5298 26.528L12.4448 25.445C11.6495 26.1521 10.6139 26.5285 9.55015 26.4972C8.48636 26.4659 7.47476 26.0292 6.72236 25.2766C5.96995 24.5239 5.53362 23.5122 5.50267 22.4484C5.47172 21.3846 5.84848 20.3492 6.55585 19.554L3.47185 16.468C3.12453 16.1204 2.85876 15.7 2.69375 15.2371C2.52874 14.7742 2.46861 14.2804 2.51769 13.7915C2.56678 13.3025 2.72386 12.8306 2.97759 12.4098C3.23132 11.9889 3.57535 11.6297 3.98485 11.358L11.3768 6.83604C12.796 5.92697 14.4536 5.46101 16.1386 5.49751C17.8235 5.53402 19.4594 6.07136 20.8378 7.04104L22.8138 5.06404L24.9358 7.18604L22.9598 9.16104C23.8846 10.4863 24.4169 12.0454 24.4957 13.6595C24.5744 15.2736 24.1963 16.8771 23.4048 18.286H23.4068ZM19.8868 10.141C18.9949 9.24097 17.821 8.67439 16.5614 8.53606C15.3018 8.39772 14.0329 8.69601 12.9668 9.38104L5.59985 13.889C5.54198 13.9403 5.50616 14.012 5.49985 14.089C5.49474 14.1357 5.50027 14.1828 5.51604 14.227C5.5318 14.2712 5.55738 14.3112 5.59085 14.344L15.6468 24.404C15.6803 24.4393 15.7218 24.4659 15.7678 24.4816C15.8137 24.4973 15.8628 24.5015 15.9108 24.494C15.9587 24.4891 16.0047 24.4727 16.0449 24.4462C16.0851 24.4198 16.1184 24.384 16.1418 24.342L20.8208 16.758C21.4027 15.7026 21.626 14.4867 21.4572 13.2933C21.2884 12.1 20.7366 10.9937 19.8848 10.141H19.8868Z" fill="#9097A7"/>
</g>
<defs>
<clipPath id="clip0_606_2178">
<rect width="24" height="24" fill="white" transform="translate(2.5 3.5)"/>
</clipPath>
</defs>
</svg>
