<svg width="40" height="40" viewBox="0 0 40 40" fill="none" xmlns="http://www.w3.org/2000/svg">
<g clip-path="url(#clip0_608_2199)">
<path d="M31.9997 32H20.0167C17.6758 31.9987 15.3863 31.3127 13.4303 30.0265C11.4743 28.7403 9.93727 26.9101 9.00844 24.7613C8.07961 22.6125 7.79957 20.2389 8.20282 17.9329C8.60607 15.6269 9.675 13.4893 11.2779 11.7832C12.8809 10.0771 14.9478 8.87712 17.2242 8.33105C19.5006 7.78498 21.887 7.91666 24.0895 8.70987C26.292 9.50308 28.2144 10.9232 29.6199 12.7953C31.0254 14.6674 31.8526 16.9097 31.9997 19.246V19.34V32ZM20.0167 11C18.8348 11 17.6645 11.2328 16.5726 11.6851C15.4807 12.1374 14.4885 12.8003 13.6528 13.636C12.817 14.4718 12.1541 15.4639 11.7018 16.5558C11.2495 17.6478 11.0167 18.8181 11.0167 20C11.0167 21.1819 11.2495 22.3522 11.7018 23.4442C12.1541 24.5361 12.817 25.5282 13.6528 26.364C14.4885 27.1997 15.4807 27.8626 16.5726 28.3149C17.6645 28.7672 18.8348 29 20.0167 29H28.9997V19.389C28.8414 17.1137 27.8264 14.983 26.1595 13.4263C24.4926 11.8696 22.2975 11.0026 20.0167 11Z" fill="#6CC2FF"/>
<path d="M22.0002 16.0002H16.0002V19.0002H22.0002V16.0002Z" fill="#6CC2FF"/>
<path d="M26.0002 22.0002H16.0002V25.0002H26.0002V22.0002Z" fill="#6CC2FF"/>
</g>
<defs>
<clipPath id="clip0_608_2199">
<rect width="24" height="24" fill="white" transform="translate(8 8)"/>
</clipPath>
</defs>
</svg>
