<svg width="125" height="27" viewBox="0 0 125 27" fill="none" xmlns="http://www.w3.org/2000/svg">
<path fill-rule="evenodd" clip-rule="evenodd" d="M60.5869 19.7063V13.396C60.5869 11.8882 59.5864 9.53765 56.6868 9.53765C54.0355 9.53765 52.5776 11.8473 52.3472 12.2456C51.9523 10.921 50.8464 9.53765 48.6221 9.53765C45.7225 9.53765 44.4576 12.3043 44.4576 12.3043V9.82392H37.9955V6.51318H35.7462V9.82392H31.135V6.51318H28.8856V9.82392H24.2744V6.51318H22.0251V9.82392H17.8427L14.3982 18.8813L10.9536 9.82392C10.9536 9.82392 5.06499 8.12054 3.75721 12.8911V9.82392H0V11.9914H1.50788V21.8738H3.75721V17.1993C3.77328 16.1182 4.10916 10.56 9.27778 12.2759L13.0939 22.3094L12.0005 25.1845H14.6072L15.7006 22.3094L19.6239 11.9931H22.0233V17.834C22.0233 17.834 22.0233 17.8358 22.0233 17.8376C22.0233 20.1668 23.9207 22.0534 26.2593 22.0534C26.6631 22.0534 27.0526 21.9965 27.4206 21.8916V19.8148H26.2593C25.1624 19.8148 24.2727 18.9293 24.2727 17.8376C24.2727 17.8376 24.2727 17.8358 24.2727 17.834V11.9896H28.8838V17.8305C28.8838 17.8305 28.8838 17.8323 28.8838 17.834C28.8838 20.1633 30.7812 22.0498 33.1199 22.0498C33.5236 22.0498 33.9131 21.9929 34.2811 21.888V19.8112H33.1199C32.0229 19.8112 31.1332 18.9258 31.1332 17.834C31.1332 17.834 31.1332 17.8323 31.1332 17.8305V11.9896H35.7444V17.8305C35.7444 17.8305 35.7444 17.8323 35.7444 17.834C35.7444 20.1633 37.6417 22.0498 39.9804 22.0498C40.3841 22.0498 40.7736 21.9929 41.1417 21.888V19.8112H39.9804C38.8834 19.8112 37.9937 18.9258 37.9937 17.834C37.9937 17.834 37.9937 17.8323 37.9937 17.8305V11.9896H42.2065V21.872H44.4558V16.4738C44.4558 13.0511 46.6319 11.6091 48.4881 11.6091C50.1497 11.6091 50.2658 13.7552 50.2712 14.2033V21.872H52.5205V16.4738C52.5205 13.0511 54.6965 11.6091 56.5528 11.6091C58.2143 11.6091 58.3305 13.7552 58.3358 14.2033V21.872H62.093V19.7046H60.5851L60.5869 19.7063Z" fill="url(#paint0_linear_606_2153)"/>
<path d="M116.298 22.2886C115.518 22.2886 114.809 22.1416 114.173 21.8476C113.537 21.5483 113.032 21.118 112.658 20.5567C112.284 19.9901 112.097 19.3058 112.097 18.504C112.097 17.7984 112.236 17.2265 112.514 16.7881C112.791 16.3444 113.163 15.997 113.628 15.7458C114.093 15.4945 114.606 15.3074 115.168 15.1845C115.734 15.0562 116.303 14.9546 116.875 14.8798C117.624 14.7836 118.23 14.7114 118.696 14.6633C119.166 14.6098 119.508 14.5216 119.722 14.3987C119.941 14.2757 120.051 14.0619 120.051 13.7572V13.6931C120.051 12.902 119.834 12.2872 119.401 11.8489C118.974 11.4106 118.324 11.1914 117.453 11.1914C116.549 11.1914 115.841 11.3892 115.328 11.7848C114.815 12.1803 114.454 12.6026 114.245 13.0516L112.449 12.4102C112.77 11.6618 113.198 11.0792 113.732 10.6622C114.272 10.2399 114.86 9.94591 115.496 9.7802C116.138 9.60915 116.769 9.52362 117.389 9.52362C117.784 9.52362 118.239 9.57173 118.752 9.66795C119.27 9.75882 119.77 9.94858 120.251 10.2372C120.738 10.5259 121.141 10.9616 121.462 11.5442C121.783 12.1269 121.943 12.9073 121.943 13.8855V22H120.051V20.3322H119.954C119.826 20.5994 119.612 20.8854 119.313 21.1901C119.014 21.4948 118.615 21.7541 118.118 21.9679C117.621 22.1817 117.014 22.2886 116.298 22.2886ZM116.587 20.5888C117.335 20.5888 117.966 20.4418 118.479 20.1478C118.998 19.8538 119.388 19.4742 119.65 19.0092C119.917 18.5441 120.051 18.055 120.051 17.5418V15.8099C119.97 15.9061 119.794 15.9943 119.521 16.0745C119.254 16.1493 118.944 16.2162 118.591 16.275C118.244 16.3284 117.904 16.3765 117.573 16.4193C117.247 16.4567 116.982 16.4888 116.779 16.5155C116.287 16.5796 115.828 16.6839 115.4 16.8282C114.978 16.9672 114.636 17.1783 114.374 17.4616C114.117 17.7396 113.989 18.1191 113.989 18.6002C113.989 19.2577 114.232 19.7549 114.719 20.0916C115.21 20.423 115.833 20.5888 116.587 20.5888Z" fill="white"/>
<path d="M109.827 9.68398V11.2876H103.445V9.68398H109.827ZM105.305 6.73328H107.197V18.4719C107.197 19.0065 107.275 19.4074 107.43 19.6747C107.59 19.9366 107.793 20.113 108.039 20.2039C108.291 20.2894 108.555 20.3322 108.833 20.3322C109.042 20.3322 109.213 20.3215 109.346 20.3001C109.48 20.2734 109.587 20.252 109.667 20.2359L110.052 21.9358C109.924 21.9839 109.745 22.032 109.515 22.0801C109.285 22.1336 108.994 22.1603 108.641 22.1603C108.106 22.1603 107.582 22.0454 107.069 21.8155C106.561 21.5857 106.139 21.2356 105.802 20.7651C105.471 20.2947 105.305 19.7014 105.305 18.9851V6.73328Z" fill="white"/>
<path d="M96.4931 22.2565C95.3064 22.2565 94.2828 21.9946 93.4221 21.4708C92.5669 20.9416 91.9067 20.2039 91.4416 19.2577C90.9819 18.3062 90.7521 17.1997 90.7521 15.9382C90.7521 14.6767 90.9819 13.5648 91.4416 12.6026C91.9067 11.6351 92.5535 10.8814 93.382 10.3415C94.2159 9.79624 95.1888 9.52362 96.3007 9.52362C96.9421 9.52362 97.5756 9.63053 98.201 9.84435C98.8264 10.0582 99.3957 10.4056 99.9089 10.8867C100.422 11.3625 100.831 11.9932 101.136 12.779C101.44 13.5648 101.593 14.5323 101.593 15.6816V16.4834H92.0991V14.8477H99.6683C99.6683 14.1528 99.5293 13.5327 99.2514 12.9875C98.9788 12.4422 98.5885 12.0119 98.0807 11.6966C97.5782 11.3812 96.9849 11.2235 96.3007 11.2235C95.547 11.2235 94.8948 11.4106 94.3442 11.7848C93.799 12.1536 93.3794 12.6347 93.0854 13.228C92.7914 13.8214 92.6444 14.4575 92.6444 15.1364V16.2268C92.6444 17.157 92.8047 17.9454 93.1255 18.5922C93.4515 19.2337 93.9032 19.7228 94.4805 20.0596C95.0579 20.391 95.7287 20.5567 96.4931 20.5567C96.9902 20.5567 97.4393 20.4872 97.8402 20.3482C98.2464 20.2039 98.5966 19.9901 98.8906 19.7067C99.1846 19.4181 99.4117 19.0599 99.5721 18.6323L101.4 19.1455C101.208 19.7655 100.884 20.3108 100.43 20.7812C99.9757 21.2462 99.4144 21.6097 98.7462 21.8717C98.078 22.1283 97.327 22.2565 96.4931 22.2565Z" fill="white"/>
<path d="M77.5621 22V5.57867H79.4544V11.6404H79.6148C79.7538 11.4266 79.9462 11.154 80.1921 10.8226C80.4433 10.4858 80.8015 10.1865 81.2665 9.92455C81.7369 9.65727 82.3731 9.52364 83.1749 9.52364C84.2119 9.52364 85.126 9.78289 85.9171 10.3014C86.7082 10.8199 87.3256 11.5549 87.7693 12.5064C88.213 13.4579 88.4348 14.5805 88.4348 15.8741C88.4348 17.1784 88.213 18.3089 87.7693 19.2658C87.3256 20.2173 86.7109 20.9549 85.9251 21.4788C85.1393 21.9973 84.2333 22.2566 83.207 22.2566C82.4158 22.2566 81.7824 22.1256 81.3066 21.8637C80.8309 21.5964 80.4647 21.2944 80.2081 20.9576C79.9516 20.6155 79.7538 20.3322 79.6148 20.1077H79.3903V22H77.5621ZM79.4224 15.842C79.4224 16.7721 79.5587 17.5926 79.8313 18.3036C80.1039 19.0092 80.5021 19.5624 81.026 19.9633C81.5499 20.3589 82.1913 20.5567 82.9504 20.5567C83.7415 20.5567 84.4017 20.3482 84.9309 19.9313C85.4654 19.509 85.8663 18.9424 86.1336 18.2314C86.4062 17.5151 86.5425 16.7186 86.5425 15.842C86.5425 14.976 86.4089 14.1956 86.1416 13.5007C85.8797 12.8004 85.4815 12.2472 84.9469 11.8409C84.4177 11.4293 83.7522 11.2235 82.9504 11.2235C82.1806 11.2235 81.5338 11.4186 81.01 11.8088C80.4861 12.1937 80.0905 12.7336 79.8233 13.4285C79.556 14.1181 79.4224 14.9226 79.4224 15.842Z" fill="white"/>
<rect x="67.3037" y="3.47375" width="2.17109" height="23.4477" fill="white"/>
<defs>
<linearGradient id="paint0_linear_606_2153" x1="0" y1="15.8488" x2="62.093" y2="15.8488" gradientUnits="userSpaceOnUse">
<stop stop-color="#C3CBFF"/>
<stop offset="1" stop-color="#F6B4FF"/>
</linearGradient>
</defs>
</svg>
