<svg preserveAspectRatio="none" width="100%" height="100%" overflow="visible" style="display: block;" viewBox="0 0 44.3808 16.71" fill="none" xmlns="http://www.w3.org/2000/svg">
<g id="beta">
<path id="Vector" d="M38.736 16.71C37.9556 16.71 37.2473 16.563 36.6112 16.269C35.9751 15.9696 35.4699 15.5393 35.0957 14.978C34.7216 14.4114 34.5345 13.7272 34.5345 12.9254C34.5345 12.2198 34.6734 11.6478 34.9514 11.2095C35.2294 10.7658 35.6009 10.4183 36.0659 10.1671C36.531 9.91586 37.0442 9.72876 37.6054 9.60582C38.1721 9.47753 38.7414 9.37596 39.3133 9.30113C40.0617 9.20491 40.6684 9.13274 41.1335 9.08463C41.6039 9.03118 41.946 8.94298 42.1598 8.82003C42.3789 8.69709 42.4885 8.48327 42.4885 8.17858V8.11443C42.4885 7.3233 42.272 6.70857 41.8391 6.27024C41.4114 5.83191 40.7619 5.61275 39.8906 5.61275C38.9872 5.61275 38.279 5.81053 37.7658 6.2061C37.2526 6.60166 36.8918 7.02395 36.6833 7.47297L34.8873 6.83152C35.208 6.08315 35.6356 5.50049 36.1702 5.08355C36.7101 4.66125 37.2981 4.36725 37.9342 4.20154C38.5756 4.03049 39.2064 3.94496 39.8265 3.94496C40.222 3.94496 40.6764 3.99307 41.1896 4.08929C41.7081 4.18016 42.2079 4.36993 42.689 4.65858C43.1754 4.94724 43.579 5.38289 43.8997 5.96555C44.2205 6.54821 44.3808 7.32865 44.3808 8.30687V16.4213H42.4885V14.7535H42.3923C42.264 15.0208 42.0502 15.3068 41.7509 15.6115C41.4515 15.9162 41.0533 16.1754 40.5561 16.3892C40.059 16.603 39.4523 16.71 38.736 16.71ZM39.0247 15.0101C39.773 15.0101 40.4038 14.8631 40.917 14.5691C41.4355 14.2751 41.8257 13.8956 42.0876 13.4305C42.3549 12.9655 42.4885 12.4763 42.4885 11.9632V10.2312C42.4083 10.3275 42.2319 10.4157 41.9593 10.4958C41.6921 10.5707 41.382 10.6375 41.0292 10.6963C40.6818 10.7498 40.3423 10.7979 40.0109 10.8406C39.6848 10.878 39.4202 10.9101 39.2171 10.9368C38.7253 11.001 38.2656 11.1052 37.838 11.2496C37.4157 11.3885 37.0736 11.5997 36.8116 11.883C36.5551 12.161 36.4268 12.5405 36.4268 13.0216C36.4268 13.6791 36.67 14.1762 37.1564 14.513C37.6482 14.8444 38.271 15.0101 39.0247 15.0101Z" fill="var(--fill-0, white)"/>
<path id="Vector_2" d="M32.2653 4.10532V5.70897H25.8828V4.10532H32.2653ZM27.743 1.15462H29.6353V12.8933C29.6353 13.4278 29.7128 13.8287 29.8679 14.096C30.0282 14.3579 30.2314 14.5343 30.4772 14.6252C30.7285 14.7107 30.9931 14.7535 31.2711 14.7535C31.4795 14.7535 31.6506 14.7428 31.7842 14.7214C31.9179 14.6947 32.0248 14.6733 32.1049 14.6573L32.4898 16.3572C32.3615 16.4053 32.1825 16.4534 31.9526 16.5015C31.7227 16.5549 31.4314 16.5817 31.0786 16.5817C30.5441 16.5817 30.0202 16.4667 29.507 16.2369C28.9992 16.007 28.5769 15.6569 28.2402 15.1865C27.9087 14.7161 27.743 14.1227 27.743 13.4065V1.15462Z" fill="var(--fill-0, white)"/>
<path id="Vector_3" d="M18.931 16.6779C17.7443 16.6779 16.7207 16.416 15.86 15.8921C15.0048 15.3629 14.3446 14.6252 13.8795 13.6791C13.4198 12.7276 13.19 11.6211 13.19 10.3595C13.19 9.098 13.4198 7.98614 13.8795 7.02395C14.3446 6.05642 14.9914 5.30271 15.82 4.76282C16.6538 4.21758 17.6267 3.94496 18.7386 3.94496C19.38 3.94496 20.0135 4.05187 20.6389 4.26569C21.2643 4.47951 21.8336 4.82696 22.3468 5.30806C22.8599 5.7838 23.2689 6.41457 23.5736 7.20036C23.8783 7.98614 24.0306 8.95367 24.0306 10.1029V10.9048H14.537V9.26905H22.1062C22.1062 8.57414 21.9672 7.95407 21.6893 7.40883C21.4167 6.86359 21.0264 6.43328 20.5186 6.1179C20.0162 5.80251 19.4228 5.64482 18.7386 5.64482C17.9849 5.64482 17.3327 5.83191 16.7821 6.2061C16.2369 6.57493 15.8173 7.05603 15.5233 7.64937C15.2293 8.24272 15.0823 8.87883 15.0823 9.55771V10.6482C15.0823 11.5783 15.2426 12.3668 15.5634 13.0136C15.8894 13.655 16.3411 14.1441 16.9184 14.4809C17.4958 14.8123 18.1666 14.978 18.931 14.978C19.4281 14.978 19.8772 14.9085 20.2781 14.7695C20.6843 14.6252 21.0345 14.4114 21.3285 14.1281C21.6225 13.8394 21.8496 13.4813 22.01 13.0537L23.8382 13.5668C23.6457 14.1869 23.3223 14.7321 22.868 15.2025C22.4136 15.6676 21.8523 16.0311 21.1841 16.293C20.516 16.5496 19.7649 16.6779 18.931 16.6779Z" fill="var(--fill-0, white)"/>
<path id="Vector_4" d="M2.28882e-05 16.4213V0H1.89232V6.06177H2.05269C2.19167 5.84795 2.3841 5.57533 2.63 5.24391C2.88123 4.90715 3.23938 4.6078 3.70444 4.34587C4.17484 4.0786 4.81095 3.94496 5.61277 3.94496C6.64979 3.94496 7.56387 4.20422 8.355 4.72273C9.14613 5.24124 9.76353 5.97624 10.2072 6.92774C10.6509 7.87923 10.8727 9.00178 10.8727 10.2954C10.8727 11.5997 10.6509 12.7302 10.2072 13.6871C9.76353 14.6386 9.1488 15.3763 8.36302 15.9001C7.57723 16.4186 6.67118 16.6779 5.64485 16.6779C4.85371 16.6779 4.22028 16.5469 3.74453 16.285C3.26878 16.0177 2.90262 15.7157 2.64603 15.3789C2.38945 15.0368 2.19167 14.7535 2.05269 14.529H1.82818V16.4213H2.28882e-05ZM1.86025 10.2633C1.86025 11.1934 1.99656 12.014 2.26918 12.7249C2.5418 13.4305 2.94003 13.9838 3.46389 14.3847C3.98775 14.7802 4.6292 14.978 5.38826 14.978C6.17939 14.978 6.83956 14.7695 7.36876 14.3526C7.90331 13.9303 8.30422 13.3637 8.57149 12.6527C8.84411 11.9364 8.98042 11.14 8.98042 10.2633C8.98042 9.39735 8.84678 8.61691 8.57951 7.92199C8.31758 7.22174 7.91934 6.66848 7.3848 6.26222C6.8556 5.85062 6.19008 5.64482 5.38826 5.64482C4.61851 5.64482 3.97171 5.83993 3.44785 6.23015C2.924 6.61503 2.52843 7.15492 2.26116 7.84983C1.99389 8.5394 1.86025 9.34389 1.86025 10.2633Z" fill="var(--fill-0, white)"/>
</g>
</svg>
