<svg preserveAspectRatio="none" width="100%" height="100%" overflow="visible" style="display: block;" viewBox="0 0 62.093 18.6713" fill="none" xmlns="http://www.w3.org/2000/svg">
<path id="Vector" fill-rule="evenodd" clip-rule="evenodd" d="M60.5869 13.1931V6.88284C60.5869 5.37505 59.5864 3.02447 56.6868 3.02447C54.0355 3.02447 52.5776 5.33416 52.3472 5.73244C51.9523 4.40779 50.8464 3.02447 48.6221 3.02447C45.7225 3.02447 44.4576 5.79112 44.4576 5.79112V3.31073H37.9955V0H35.7462V3.31073H31.135V0H28.8856V3.31073H24.2744V0H22.0251V3.31073H17.8427L14.3982 12.3681L10.9536 3.31073C10.9536 3.31073 5.06499 1.60736 3.7572 6.37787V3.31073H0V5.47818H1.50788V15.3606H3.7572V10.6861C3.77328 9.60504 4.10916 4.04685 9.27778 5.76267L13.0939 15.7962L12.0005 18.6713H14.6072L15.7006 15.7962L19.6239 5.47996H22.0233V11.3209C22.0233 11.3209 22.0233 11.3226 22.0233 11.3244C22.0233 13.6537 23.9207 15.5402 26.2593 15.5402C26.6631 15.5402 27.0526 15.4833 27.4206 15.3784V13.3016H26.2593C25.1624 13.3016 24.2727 12.4161 24.2727 11.3244C24.2727 11.3244 24.2727 11.3226 24.2727 11.3209V5.4764H28.8838V11.3173C28.8838 11.3173 28.8838 11.3191 28.8838 11.3209C28.8838 13.6501 30.7812 15.5366 33.1199 15.5366C33.5236 15.5366 33.9131 15.4797 34.2811 15.3748V13.2981H33.1199C32.0229 13.2981 31.1332 12.4126 31.1332 11.3209C31.1332 11.3209 31.1332 11.3191 31.1332 11.3173V5.4764H35.7444V11.3173C35.7444 11.3173 35.7444 11.3191 35.7444 11.3209C35.7444 13.6501 37.6417 15.5366 39.9804 15.5366C40.3841 15.5366 40.7736 15.4797 41.1417 15.3748V13.2981H39.9804C38.8834 13.2981 37.9937 12.4126 37.9937 11.3209C37.9937 11.3209 37.9937 11.3191 37.9937 11.3173V5.4764H42.2065V15.3588H44.4558V9.96065C44.4558 6.5379 46.6319 5.0959 48.4881 5.0959C50.1497 5.0959 50.2658 7.24201 50.2712 7.69008V15.3588H52.5205V9.96065C52.5205 6.5379 54.6965 5.0959 56.5528 5.0959C58.2143 5.0959 58.3305 7.24201 58.3358 7.69008V15.3588H62.093V13.1914H60.5851L60.5869 13.1931Z" fill="url(#paint0_linear_616_1716)"/>
<defs>
<linearGradient id="paint0_linear_616_1716" x1="0" y1="9.33567" x2="62.093" y2="9.33567" gradientUnits="userSpaceOnUse">
<stop stop-color="#C3CBFF"/>
<stop offset="1" stop-color="#F6B4FF"/>
</linearGradient>
</defs>
</svg>
